<svg xmlns="http://www.w3.org/2000/svg" viewBox="0 0 236.828 37.139"><defs><style>.a{fill:#fff;}</style></defs><g transform="translate(-170 -33)"><path class="a" d="M123.514,15h2.214V31.46h-2.59V19.47l-5.974,7.52-5.974-7.52V31.46H108.6V15h2.214l6.35,7.979Z" transform="translate(106.769 24.266)"/><path class="a" d="M185.264,29.12V31.46H173.4V15h11.655v2.339H175.99v4.345H183.8v2.339H175.99v5.055h9.274Z" transform="translate(69.04 24.266)"/><path class="a" d="M441.864,29.12V31.46H430V15h11.656v2.339H432.59v4.345H440.4v2.339H432.59v5.055Z" transform="translate(-80.363 24.266)"/><path class="a" d="M228.031,14.5a7.791,7.791,0,0,1,2.924.5,10.713,10.713,0,0,1,2.089,1.086,8.636,8.636,0,0,1,1.671,1.587L233.086,19.3a4.948,4.948,0,0,0-1.253-1.212,10.811,10.811,0,0,0-1.587-.877,6,6,0,0,0-2.214-.376,6.527,6.527,0,0,0-2.381.46,6.178,6.178,0,0,0-1.963,1.3,6.126,6.126,0,0,0-1.755,4.345,6.527,6.527,0,0,0,.46,2.381,6.178,6.178,0,0,0,1.3,1.963,6.126,6.126,0,0,0,4.345,1.755,5.238,5.238,0,0,0,2.214-.418,9.834,9.834,0,0,0,1.629-.877,6.549,6.549,0,0,0,1.337-1.3l1.629,1.629a8.137,8.137,0,0,1-1.755,1.629,10.139,10.139,0,0,1-2.131,1.128,8.019,8.019,0,0,1-2.966.5,8.356,8.356,0,0,1-3.426-.668,8.737,8.737,0,0,1-2.757-1.8,8.485,8.485,0,0,1-1.838-2.674,8.482,8.482,0,0,1,0-6.6,8.037,8.037,0,0,1,1.838-2.674,8.737,8.737,0,0,1,2.757-1.8A9.467,9.467,0,0,1,228.031,14.5Z" transform="translate(42.315 24.558)"/><path class="a" d="M291.02,31.46h-2.59V24.316h-8.94V31.5H276.9V15h2.59v6.935h8.94V15h2.59Z" transform="translate(8.778 24.266)"/><path class="a" d="M547.22,31.46h-2.59V24.316h-8.94V31.5H533.1V15h2.59v6.935h8.94V15h2.59Z" transform="translate(-140.392 24.266)"/><path class="a" d="M334.809,15h2.59l6.809,16.46h-2.715l-1.713-4.345h-7.269l-1.755,4.345H328Zm-1.379,9.776h5.389L336.1,17.966Z" transform="translate(-20.975 24.266)"/><path class="a" d="M392.152,15v2.339h-5.431V31.46h-2.59V17.381H378.7V15Z" transform="translate(-50.494 24.266)"/><path class="a" d="M484.731,14.5a7.791,7.791,0,0,1,2.924.5,10.712,10.712,0,0,1,2.089,1.086,8.636,8.636,0,0,1,1.671,1.587L489.786,19.3a4.949,4.949,0,0,0-1.253-1.212,10.812,10.812,0,0,0-1.587-.877,6,6,0,0,0-2.214-.376,6.528,6.528,0,0,0-2.381.46,6.178,6.178,0,0,0-1.963,1.3,6.126,6.126,0,0,0-1.755,4.345,6.527,6.527,0,0,0,.46,2.381,6.178,6.178,0,0,0,1.3,1.963,6.126,6.126,0,0,0,4.345,1.755,5.238,5.238,0,0,0,2.214-.418,9.835,9.835,0,0,0,1.629-.877,6.549,6.549,0,0,0,1.337-1.3l1.629,1.629a8.137,8.137,0,0,1-1.755,1.629,10.139,10.139,0,0,1-2.131,1.128,8.019,8.019,0,0,1-2.966.5,8.357,8.357,0,0,1-3.426-.668,9.524,9.524,0,0,1-2.757-1.8,8.485,8.485,0,0,1-1.838-2.674,8.482,8.482,0,0,1,0-6.6,8.037,8.037,0,0,1,1.838-2.674,8.737,8.737,0,0,1,2.757-1.8A9.468,9.468,0,0,1,484.731,14.5Z" transform="translate(-107.146 24.558)"/><g transform="translate(215.327 61.909)"><path class="a" d="M109.586,73.009H112.3v-1h-2.715V70.5h3.426v-1H108.5v6.308h4.6v-1h-3.509Z" transform="translate(-108.5 -69.375)"/><path class="a" d="M137.159,72.466l-2.339-2.924V69.5H133.9v6.308h1.086V71.38l2.172,2.8,2.214-2.8v4.428h1.086V69.5h-.919Z" transform="translate(-123.289 -69.375)"/><path class="a" d="M168.885,72.366a1.584,1.584,0,0,0,.585-1.253,1.816,1.816,0,0,0-1.88-1.713H165v6.308h2.715a1.966,1.966,0,0,0,2.047-1.88A1.882,1.882,0,0,0,168.885,72.366Zm-2.8-.418V70.361h1.5a.794.794,0,0,1,0,1.587Zm2.59,1.88a.945.945,0,0,1-.961.961h-1.629V72.867h1.629A.945.945,0,0,1,168.676,73.828Z" transform="translate(-141.397 -69.316)"/><path class="a" d="M195.721,71.463a1.956,1.956,0,0,0-2.047-1.963H191v6.308h1.086V73.427h1.337l1.3,2.381v.042h1.17l-1.42-2.507A2.125,2.125,0,0,0,195.721,71.463Zm-1.086,0a.945.945,0,0,1-.961.961h-1.587V70.5h1.587A.945.945,0,0,1,194.635,71.463Z" transform="translate(-156.535 -69.375)"/><path class="a" d="M218.132,69.5l-2.59,6.225-.042.084h1.128l.668-1.629h2.674l.668,1.587v.042h1.128L219.135,69.5Zm1.462,3.676h-1.88l.919-2.381Z" transform="translate(-170.8 -69.375)"/><path class="a" d="M247.822,73.854a2.466,2.466,0,0,1-1.922.961,2.256,2.256,0,0,1,0-4.512,2.327,2.327,0,0,1,1.88.919l.042.042.71-.71-.042-.042a3.29,3.29,0,1,0-2.548,5.306,3.529,3.529,0,0,0,2.632-1.253l.042-.042-.71-.71Z" transform="translate(-186.578 -69.258)"/><path class="a" d="M272.086,73.009h2.674v-1h-2.674V70.5h3.384v-1H271v6.308h4.554v-1h-3.467Z" transform="translate(-203.114 -69.375)"/><path class="a" d="M310.3,70.5h1.88v5.306h1.044V70.5h1.88v-1h-4.8Z" transform="translate(-225.996 -69.375)"/><path class="a" d="M336.586,73.009H339.3v-1h-2.715V70.5h3.426v-1H335.5v6.308h4.6v-1h-3.509Z" transform="translate(-240.668 -69.375)"/><path class="a" d="M365.322,73.854a2.466,2.466,0,0,1-1.922.961,2.256,2.256,0,0,1,0-4.512,2.327,2.327,0,0,1,1.88.919l.042.042.71-.71-.042-.042a3.29,3.29,0,1,0-2.548,5.306,3.638,3.638,0,0,0,2.632-1.253l.042-.042-.71-.71Z" transform="translate(-254.992 -69.258)"/><path class="a" d="M392.51,72.132h-2.966V69.5H388.5v6.308h1.044V73.093h2.966v2.715H393.6V69.5H392.51Z" transform="translate(-271.527 -69.375)"/><path class="a" d="M420.4,73.886l-3.342-4.345-.042-.042H416.1v6.308h1.086V71.422l3.384,4.386h.919V69.5H420.4Z" transform="translate(-287.597 -69.375)"/><path class="a" d="M446.942,69.3a3.26,3.26,0,1,0,3.342,3.259A3.256,3.256,0,0,0,446.942,69.3Zm2.256,3.259a2.256,2.256,0,1,1-2.256-2.256A2.221,2.221,0,0,1,449.2,72.559Z" transform="translate(-303.609 -69.258)"/><path class="a" d="M475.186,69.5H474.1v6.308h4.094v-1h-3.008Z" transform="translate(-321.367 -69.375)"/><path class="a" d="M499.542,69.3a3.26,3.26,0,1,0,3.342,3.259A3.256,3.256,0,0,0,499.542,69.3Zm2.214,3.259A2.256,2.256,0,1,1,499.5,70.3,2.221,2.221,0,0,1,501.756,72.559Z" transform="translate(-334.234 -69.258)"/><path class="a" d="M529.718,73.252h1.211v.877a2.324,2.324,0,0,1-1.629.585,2.256,2.256,0,1,1,0-4.512,2.327,2.327,0,0,1,1.88.919l.042.042.71-.71-.042-.042a3.29,3.29,0,1,0-2.548,5.306,3.677,3.677,0,0,0,2.715-1.17h0v-2.3h-2.3v1Z" transform="translate(-351.585 -69.2)"/><path class="a" d="M557.612,69.5l-1.671,2.924L554.312,69.5H553.1l2.3,4.052v2.256h1.086V73.552l2.256-3.969.042-.084Z" transform="translate(-367.364 -69.375)"/></g><path class="a" d="M36.136,12.533v-.084h-.042a18.56,18.56,0,0,0-35.05,0H1v.125a17.758,17.758,0,0,0-1,5.974,18.569,18.569,0,1,0,37.139,0A19.324,19.324,0,0,0,36.136,12.533Zm-1.8-.084H24.69l7.52-3.843A16.429,16.429,0,0,1,34.34,12.449ZM4.888,8.606l7.52,3.843H2.8A17.948,17.948,0,0,1,4.888,8.606ZM1.671,18.549a16.906,16.906,0,0,1,.794-5.1H13.7a2.785,2.785,0,0,1,1.629.5l.042.042a1.636,1.636,0,0,1,.418.334l.042.042a2.3,2.3,0,0,1,.292.376c0,.042.042.042.042.084.084.167.167.292.251.46v.042a2.037,2.037,0,0,1,.167.46.153.153,0,0,0,.042.125,2.207,2.207,0,0,1,.042.543,2.248,2.248,0,0,1-.167.919L11.28,33.839A17,17,0,0,1,1.671,18.549Zm15,16.836a18,18,0,0,1-4.47-1.128l4.47-13.995Zm1,.084V16.46a3.679,3.679,0,0,0-.084-.71c0-.042-.042-.125-.042-.167a3.676,3.676,0,0,0-.209-.627v-.042A4.566,4.566,0,0,0,17,14.287c0-.042-.042-.042-.084-.084a4.425,4.425,0,0,0-.418-.5l-.042-.042a2.876,2.876,0,0,0-.543-.46c-.042,0-.042-.042-.084-.042-.125-.084-.209-.125-.334-.209L5.514,7.812a16.9,16.9,0,0,1,26.068,0l-9.9,5.055-.084.042a1.466,1.466,0,0,0-.334.209c-.042,0-.042.042-.084.042a2.876,2.876,0,0,0-.543.46l-.042.042a4.425,4.425,0,0,0-.418.5c0,.042-.042.042-.042.084a4.566,4.566,0,0,0-.334.627v.042a3.676,3.676,0,0,0-.209.627c0,.042-.042.125-.042.167a4.116,4.116,0,0,0-.084.71V35.426c-.292,0-.585.042-.877.042A6.74,6.74,0,0,1,17.671,35.468Zm2.8-15.206,4.47,13.995a15.968,15.968,0,0,1-4.47,1.128Zm5.389,13.577L20.6,17.379a3.553,3.553,0,0,1-.167-.919c0-.167.042-.376.042-.543a.153.153,0,0,1,.042-.125,1.5,1.5,0,0,1,.167-.46V15.29a4.557,4.557,0,0,1,.251-.46l.042-.042c.084-.125.209-.251.292-.376l.042-.042a1.636,1.636,0,0,1,.418-.334l.042-.042a3.006,3.006,0,0,1,1.629-.5h11.28a17.329,17.329,0,0,1,.794,5.1A16.937,16.937,0,0,1,25.859,33.839Z" transform="translate(170 33)"/><path class="a" d="M43.4,19.448A2.532,2.532,0,0,0,40.848,16.9,2.558,2.558,0,0,0,38.3,19.448a2.548,2.548,0,1,0,5.1,0Zm-2.548,1.546a1.507,1.507,0,0,1-1.5-1.546,1.534,1.534,0,0,1,1.5-1.546,1.507,1.507,0,0,1,1.5,1.546A1.481,1.481,0,0,1,40.848,20.994Z" transform="translate(147.7 23.16)"/></g></svg>